<svg version="1.2" baseProfile="tiny-ps" xmlns="http://www.w3.org/2000/svg" viewBox="0 0 140 42" width="140" height="42">
	<title>klubs-svg</title>
	<style>
		tspan { white-space:pre }
		.s0 { fill: #c7fea2 } 
	</style>
	<path id="Layer" fill-rule="evenodd" class="s0" d="m11.2 18.74l11.47-14.93h11.62l-14.35 17.14l15.7 19.06h-12.19l-12.24-15.7v15.7h-9.41v-36.19h9.41v14.93zm36.48-18.58v39.84h-8.69v-39.84h8.69zm14.63 15.22v13.87c0 3.04 1.47 4.56 4.42 4.56c2.94 0 4.42-1.52 4.42-4.56v-13.87h8.69v15.55c0 3.33-1.1 5.82-3.31 7.49c-2.18 1.66-5.44 2.5-9.79 2.5c-4.35 0-7.63-0.83-9.84-2.5c-2.18-1.66-3.26-4.16-3.26-7.49v-15.55h8.69zm32.11-15.22v17.66c2.05-2.14 4.61-3.22 7.68-3.22c1.82 0 3.49 0.35 4.99 1.06c1.54 0.67 2.83 1.6 3.89 2.78c1.09 1.15 1.94 2.53 2.54 4.13c0.61 1.57 0.91 3.25 0.91 5.04c0 1.82-0.32 3.54-0.96 5.14c-0.61 1.6-1.47 2.99-2.59 4.18c-1.12 1.18-2.45 2.13-3.98 2.83c-1.5 0.67-3.14 1.01-4.9 1.01c-3.2 0-5.73-1.17-7.58-3.5v2.74h-8.69v-39.84h8.69zm10.94 27.6c0-0.77-0.14-1.49-0.43-2.16c-0.29-0.7-0.69-1.31-1.2-1.82c-0.51-0.51-1.1-0.91-1.78-1.2c-0.67-0.32-1.41-0.48-2.21-0.48c-0.77 0-1.49 0.14-2.16 0.43c-0.67 0.29-1.26 0.69-1.78 1.2c-0.48 0.51-0.88 1.12-1.2 1.82c-0.29 0.67-0.43 1.39-0.43 2.16c0 0.77 0.14 1.49 0.43 2.16c0.29 0.67 0.69 1.26 1.2 1.78c0.51 0.48 1.1 0.88 1.78 1.2c0.7 0.29 1.44 0.43 2.21 0.43c0.77 0 1.49-0.14 2.16-0.43c0.67-0.29 1.25-0.69 1.73-1.2c0.51-0.51 0.91-1.1 1.2-1.78c0.32-0.67 0.48-1.38 0.48-2.11zm30.34-6.05c-1.6-0.83-3.17-1.25-4.7-1.25c-0.8 0-1.46 0.16-1.97 0.48c-0.48 0.32-0.72 0.75-0.72 1.3c0 0.29 0.03 0.53 0.1 0.72c0.1 0.16 0.27 0.32 0.53 0.48c0.29 0.16 0.69 0.3 1.2 0.43c0.54 0.13 1.25 0.29 2.11 0.48c2.4 0.48 4.19 1.34 5.38 2.59c1.18 1.22 1.78 2.78 1.78 4.7c0 1.44-0.29 2.74-0.86 3.89c-0.58 1.15-1.38 2.13-2.4 2.93c-1.02 0.77-2.26 1.36-3.7 1.78c-1.44 0.45-3.02 0.67-4.75 0.67c-3.33 0-6.61-0.94-9.84-2.83l3.17-6.14c2.43 1.66 4.74 2.5 6.91 2.5c0.8 0 1.46-0.18 1.97-0.53c0.51-0.35 0.77-0.8 0.77-1.34c0-0.32-0.05-0.58-0.14-0.77c-0.06-0.22-0.22-0.42-0.48-0.58c-0.26-0.19-0.64-0.35-1.15-0.48c-0.48-0.16-1.12-0.32-1.92-0.48c-2.69-0.54-4.58-1.34-5.66-2.4c-1.06-1.09-1.58-2.58-1.58-4.46c0-1.38 0.26-2.61 0.77-3.7c0.51-1.12 1.25-2.06 2.21-2.83c0.96-0.77 2.11-1.36 3.46-1.78c1.38-0.42 2.9-0.62 4.56-0.62c2.72 0 5.36 0.53 7.92 1.58l-2.93 5.66z" />
</svg>